<svg xmlns="http://www.w3.org/2000/svg" width="63" height="59" viewBox="0 0 63 59"><g><g><g><path fill="#d9000d" d="M61.87.281L46.876.15 31.88.067 1.893.002.75 0l.003 1.14.059 28.455c.067 9.484.068 18.97.191 28.454l.012.898.877-.01 29.988-.32 14.995-.261c4.998-.077 9.996-.18 14.994-.307-4.998-.127-9.996-.23-14.994-.307L31.88 57.48 2.79 57.17c.112-9.192.117-18.383.183-27.575L3.03 2.277l28.852-.062 14.995-.083 14.144-.124.305 27.587.25 14.227c.073 4.742.176 9.485.295 14.227.12-4.742.222-9.485.296-14.227l.25-14.227.314-28.454.01-.852z"/></g><g><path fill="#d9000d" d="M33.16 20.742c8.113-.552 20.598-2.39 20.598-2.39s-12.125 1.642-20.611 1.367L32.982 6.79l-.929 12.881c-1.34-.074-2.566-.202-3.6-.404-7.591-1.487-10.998-1.735-10.998-1.735l-.68-1.737-.682 3.967s6.813 1.362 14.501 1.115c.434-.014.897-.035 1.377-.061l-.372 5.16H23.64c-6.771 0-10.038-.823-10.038-.823l-.6-1.733-.6 3.965s6.005 1.361 12.782 1.114l.168-.006c.075 3.736.019 14.757-3.155 18.111-3.84 4.063-8.054 3.482-8.054 3.482s5.039 2.166 9.252-2.265c3.534-3.719 4.668-15.691 4.942-19.446 1.873-.082 3.493-.18 5.892-.374l-1.73 19.821-1.734 3.323 4.521-2.862 1.387-20.487c3.899-.34 9.688-.885 19.737-1.82H33.227z"/></g><g><path fill="#d9000d" d="M20.247 32.724l-8.555 3.646s5.333-.42 6.874-1.262c1.54-.841 1.68-2.384 1.68-2.384z"/></g><g><path fill="#d9000d" d="M39.273 33.774c.937 1.486 5.392 4.447 5.392 4.447l-5.699-7.347s-.628 1.415.307 2.9z"/></g></g></g></svg>