<svg id="mail" xmlns="http://www.w3.org/2000/svg" width="32.222" height="21.897" viewBox="0 0 32.222 21.897">
  <g id="Group_1935" data-name="Group 1935">
    <path id="Path_4593" data-name="Path 4593" d="M29.39,76H2.832A2.79,2.79,0,0,0,0,78.737V95.16A2.79,2.79,0,0,0,2.832,97.9H29.39a2.789,2.789,0,0,0,2.832-2.737V78.737A2.788,2.788,0,0,0,29.39,76Zm-.4,1.825-10.88,10.46a2.9,2.9,0,0,1-4.007,0L3.229,77.825ZM1.888,94.788V79.11l8.159,7.844ZM3.23,96.072l8.155-7.832,1.388,1.335a4.837,4.837,0,0,0,6.673,0l1.39-1.336,8.155,7.832Zm27.1-1.284-8.159-7.835,8.159-7.844Z" transform="translate(0 -76)" fill="#fff"/>
  </g>
</svg>
