<svg xmlns="http://www.w3.org/2000/svg" width="19" height="19" viewBox="0 0 19 19">
  <g id="map" transform="translate(0)">
    <path id="Path_6561" data-name="Path 6561" d="M174.531,67.266a3.266,3.266,0,1,0-3.266,3.266A3.269,3.269,0,0,0,174.531,67.266Zm-5.344,0a2.078,2.078,0,1,1,2.078,2.078A2.08,2.08,0,0,1,169.187,67.266Z" transform="translate(-161.766 -61.625)" fill="#fff"/>
    <path id="Path_6562" data-name="Path 6562" d="M18.971,18.225,16.6,10.8a.594.594,0,0,0-.422-.4l-2.42-.6A8.372,8.372,0,0,0,15.14,5.641a5.641,5.641,0,1,0-11.281,0A8.372,8.372,0,0,0,5.244,9.8l-2.42.6a.594.594,0,0,0-.422.4L.027,18.225a.594.594,0,0,0,.709.757l4.6-1.149,4,1.144a.594.594,0,0,0,.326,0l4-1.144,4.6,1.149a.594.594,0,0,0,.71-.757ZM8.905,14.215v3.4l-2.89-.826.8-4.8a23.986,23.986,0,0,0,2.09,2.221Zm1.187,0a23.981,23.981,0,0,0,2.09-2.221l.8,4.8-2.89.826ZM9.5,1.187a4.458,4.458,0,0,1,4.453,4.453c0,2.939-3.3,6.384-4.453,7.5-1.155-1.114-4.453-4.556-4.453-7.5A4.458,4.458,0,0,1,9.5,1.187ZM3.433,11.48,5.8,10.89l-.974,5.847-3.338.834Zm10.744,5.257L13.2,10.89l2.363.591,1.949,6.091Z" transform="translate(0.001)" fill="#fff"/>
  </g>
</svg>
