<svg xmlns="http://www.w3.org/2000/svg" width="54.289" height="78.965" viewBox="0 0 54.289 78.965">
  <g id="Group_2066" data-name="Group 2066" transform="translate(0)">
    <path id="Path_6568" data-name="Path 6568" d="M107.143,0A27.174,27.174,0,0,0,80,27.144,49.774,49.774,0,0,0,84.14,45.929C88.9,57.493,97.894,70.026,106.27,78.6a1.237,1.237,0,0,0,1.746,0c8.366-8.565,17.367-21.106,22.13-32.675a49.774,49.774,0,0,0,4.141-18.785A27.174,27.174,0,0,0,107.143,0Z" transform="translate(-79.999 0)" fill="#d9000d"/>
    <g id="Group_1952" data-name="Group 1952" transform="translate(10.825 14.888)">
      <path id="Path_6400" data-name="Path 6400" d="M-435.764,151.482l-7.895-.069-7.895-.044-15.789-.034h-.6l0,.6.031,14.982c.036,4.993.036,9.987.1,14.981l.006.473.462,0,15.789-.169,7.895-.138q3.947-.061,7.895-.161-3.947-.1-7.895-.162l-7.895-.138-15.317-.164c.059-4.84.062-9.679.1-14.518l.03-14.383,15.191-.032,7.895-.044,7.447-.065.161,14.525.131,7.491q.058,3.745.156,7.491.094-3.745.155-7.491l.132-7.491.166-14.982,0-.449Z" transform="translate(467.944 -151.334)" fill="#fff"/>
      <path id="Path_6401" data-name="Path 6401" d="M-441.672,167.622c4.272-.291,10.845-1.258,10.845-1.258a81.26,81.26,0,0,1-10.852.72l-.087-6.807-.489,6.782a14.285,14.285,0,0,1-1.9-.213,55.566,55.566,0,0,0-5.79-.914l-.359-.914-.359,2.089a37.612,37.612,0,0,0,7.635.587c.229-.007.472-.018.725-.032l-.2,2.717h-4.191a24.157,24.157,0,0,1-5.285-.433l-.316-.913-.316,2.088a29.365,29.365,0,0,0,6.73.587l.088,0c.04,1.967.01,7.77-1.661,9.536a5.261,5.261,0,0,1-4.24,1.833,4.474,4.474,0,0,0,4.871-1.193c1.861-1.958,2.458-8.261,2.6-10.238.986-.043,1.839-.095,3.1-.2l-.911,10.436-.913,1.75,2.38-1.507.73-10.787c2.053-.179,5.1-.466,10.392-.958h-12.206Z" transform="translate(458.736 -156.701)" fill="#fff"/>
      <path id="Path_6402" data-name="Path 6402" d="M-449.032,194.429l-4.5,1.92a15.169,15.169,0,0,0,3.619-.664A1.719,1.719,0,0,0-449.032,194.429Z" transform="translate(459.296 -177.2)" fill="#fff"/>
      <path id="Path_6403" data-name="Path 6403" d="M-417.619,193.52a15.143,15.143,0,0,0,2.839,2.342l-3-3.868A1.716,1.716,0,0,0-417.619,193.52Z" transform="translate(437.901 -175.738)" fill="#fff"/>
    </g>
  </g>
</svg>