<svg xmlns="http://www.w3.org/2000/svg" width="12.543" height="13" viewBox="0 0 12.543 13">
  <g id="pdf-file" transform="translate(-9 0)">
    <path id="Path_4668" data-name="Path 4668" d="M82.187,209h-.806a.381.381,0,0,0-.381.382l.006,2.893a.381.381,0,0,0,.762,0V211.4h.419a1.2,1.2,0,1,0,0-2.4Zm0,1.634h-.422c0-.162,0-.337,0-.437s0-.266,0-.436h.424a.436.436,0,1,1,0,.872Z" transform="translate(-70.172 -203.693)" fill="#fff"/>
    <path id="Path_4669" data-name="Path 4669" d="M210.176,209h-.8a.381.381,0,0,0-.381.382s.006,2.8.006,2.809a.381.381,0,0,0,.381.38h0c.024,0,.591,0,.818-.006a1.614,1.614,0,0,0,1.485-1.779A1.577,1.577,0,0,0,210.176,209Zm.017,2.8-.427,0c0-.331,0-1.7,0-2.045h.414c.7,0,.753.783.753,1.024C210.93,211.285,210.7,211.794,210.193,211.8Z" transform="translate(-194.922 -203.693)" fill="#fff"/>
    <path id="Path_4670" data-name="Path 4670" d="M354.545,208.6a.381.381,0,0,0,0-.762h-1.164a.381.381,0,0,0-.381.381V211.1a.381.381,0,1,0,.762,0v-1.083h.691a.381.381,0,0,0,0-.762h-.691V208.6Z" transform="translate(-335.266 -202.565)" fill="#fff"/>
    <path id="Path_4671" data-name="Path 4671" d="M20.4,3.682h-.279V3.573a1.9,1.9,0,0,0-.522-1.31L18.017.594A1.912,1.912,0,0,0,16.635,0h-5.07a1.144,1.144,0,0,0-1.143,1.143V3.682h-.279A1.144,1.144,0,0,0,9,4.824v4.57a1.144,1.144,0,0,0,1.143,1.143h.279v1.32A1.144,1.144,0,0,0,11.564,13h7.414a1.144,1.144,0,0,0,1.143-1.143v-1.32H20.4a1.144,1.144,0,0,0,1.143-1.143V4.824A1.144,1.144,0,0,0,20.4,3.682ZM11.184,1.143a.381.381,0,0,1,.381-.381h5.07a1.147,1.147,0,0,1,.829.356l1.582,1.669a1.138,1.138,0,0,1,.313.786v.109H11.184Zm8.176,10.715a.381.381,0,0,1-.381.381H11.564a.381.381,0,0,1-.381-.381v-1.32h8.176Zm1.422-2.463a.381.381,0,0,1-.381.381H10.143a.381.381,0,0,1-.381-.381V4.824a.381.381,0,0,1,.381-.381H20.4a.381.381,0,0,1,.381.381Z" transform="translate(0 0)" fill="#fff"/>
  </g>
</svg>
