<svg id="play" xmlns="http://www.w3.org/2000/svg" width="74" height="74" viewBox="0 0 74 74">
  <g id="Group_2085" data-name="Group 2085">
    <path id="Path_7192" data-name="Path 7192" d="M37,70.3A33.3,33.3,0,1,0,3.7,37,33.3,33.3,0,0,0,37,70.3ZM37,74A37,37,0,1,0,0,37,37,37,0,0,0,37,74Z" fill="#fff" fill-rule="evenodd"/>
  </g>
  <g id="Group_2086" data-name="Group 2086" transform="translate(25.899 20.989)">
    <path id="Path_7193" data-name="Path 7193" d="M87.047,69.766,70.032,58.423V81.109Zm3.438-2.155a2.59,2.59,0,0,1,0,4.31L70.359,85.339a2.59,2.59,0,0,1-4.027-2.155V56.349a2.59,2.59,0,0,1,4.027-2.155Z" transform="translate(-66.332 -53.755)" fill="#fff" fill-rule="evenodd"/>
  </g>
</svg>
