<svg xmlns="http://www.w3.org/2000/svg" width="32.222" height="29.14" viewBox="0 0 32.222 29.14">
  <path id="whatsapp" d="M27.778,4.235A16.879,16.879,0,0,0,16.428,0C7.585,0,.388,6.477.384,14.438a13.321,13.321,0,0,0,2.142,7.219L.25,29.14l8.505-2.008a17.452,17.452,0,0,0,7.667,1.758h.007c8.842,0,16.04-6.478,16.044-14.439A13.663,13.663,0,0,0,27.777,4.235ZM16.428,26.451h-.006a14.461,14.461,0,0,1-6.787-1.673l-.487-.26L4.1,25.709,5.449,21.28l-.317-.454a11.106,11.106,0,0,1-2.039-6.387c0-6.617,5.985-12,13.34-12a14.024,14.024,0,0,1,9.428,3.52,11.359,11.359,0,0,1,3.9,8.491c0,6.618-5.985,12-13.335,12Zm7.315-8.989c-.4-.181-2.372-1.053-2.739-1.174s-.635-.18-.9.181-1.036,1.174-1.269,1.414-.468.271-.869.09a11.266,11.266,0,0,1-3.224-1.791,11.138,11.138,0,0,1-2.23-2.5c-.234-.361,0-.538.176-.736a10.32,10.32,0,0,0,1-1.234.606.606,0,0,0-.034-.632c-.1-.181-.9-1.956-1.236-2.679-.326-.7-.656-.608-.9-.619s-.5-.013-.768-.013a1.551,1.551,0,0,0-1.069.452,3.891,3.891,0,0,0-1.4,3.01,6.677,6.677,0,0,0,1.637,3.732,17.272,17.272,0,0,0,6.848,5.448c.956.372,1.7.594,2.285.76a6.085,6.085,0,0,0,2.525.143A4.151,4.151,0,0,0,24.278,19.6a2.735,2.735,0,0,0,.234-1.716c-.1-.15-.367-.241-.768-.421Zm0,0" transform="translate(-0.25)" fill="#fff" fill-rule="evenodd"/>
</svg>
